<!-- <svg xmlns="http://www.w3.org/2000/svg" width="296" height="83" viewBox="0 0 296 83">
  <g id="Group_39" data-name="Group 39" transform="translate(-370 -18)">
    <text id="Karunakar_" data-name="Karunakar " transform="translate(459 50)" fill="#ffca3e" font-size="35" font-family="Georgia-Bold, Georgia" font-weight="700"><tspan x="0" y="0">Karunakar </tspan></text>
    <text id="Patel_" data-name="Patel " transform="translate(459 93)" fill="#ffca3e" font-size="35" font-family="Georgia-Bold, Georgia" font-weight="700"><tspan x="0" y="0">Patel </tspan></text>
    <rect id="Rectangle_3" data-name="Rectangle 3" width="74" height="67" rx="10" transform="translate(370 27)" fill="#ffca3e"/>
    <g id="Group_5" data-name="Group 5" transform="translate(387 45)">
      <line id="Line_3" data-name="Line 3" x1="6.457" y2="31.734" transform="translate(18.605)" fill="none" stroke="#284a98" stroke-width="5"/>
      <g id="Group_4" data-name="Group 4" transform="translate(0 8.071)">
        <path id="Path_6" data-name="Path 6" d="M16,26.488,28.562,16.244,16,6" transform="translate(13.311 -6)" fill="none" stroke="#284a98" stroke-linejoin="round" stroke-width="5"/>
        <path id="Path_7" data-name="Path 7" d="M14.562,6,2,16.244,14.562,26.488" transform="translate(-2 -6)" fill="none" stroke="#284a98" stroke-linejoin="round" stroke-width="5"/>
      </g>
    </g>
  </g>
</svg> -->

<svg xmlns="http://www.w3.org/2000/svg" width="296" height="83" viewBox="0 0 287 83">
  <g id="Group_39" data-name="Group 39" transform="translate(-370 -18)">
    <text id="Karunakar_" data-name="Karunakar " transform="translate(459 50)" fill="#ffca3e" font-size="35" font-family="Georgia-Bold, Georgia" font-weight="700"><tspan x="0" y="0">Karunakar</tspan></text>
    <text id="Patel_" data-name="Patel " transform="translate(459 93)" fill="#ffca3e" font-size="35" font-family="Georgia-Bold, Georgia" font-weight="700"><tspan x="0" y="0">Patel</tspan></text>
    <rect id="Rectangle_3" data-name="Rectangle 3" width="74" height="67" rx="10" transform="translate(370 27)" fill="#ffca3e"/>
    <g id="Group_5" data-name="Group 5" transform="translate(387 45)">
      <line id="Line_3" data-name="Line 3" x1="6.457" y2="31.734" transform="translate(18.605)" fill="none" stroke="#284a98" stroke-width="5"/>
      <g id="Group_4" data-name="Group 4" transform="translate(0 8.071)">
        <path id="Path_6" data-name="Path 6" d="M16,26.488,28.562,16.244,16,6" transform="translate(13.311 -6)" fill="none" stroke="#284a98" stroke-linejoin="round" stroke-width="5"/>
        <path id="Path_7" data-name="Path 7" d="M14.562,6,2,16.244,14.562,26.488" transform="translate(-2 -6)" fill="none" stroke="#284a98" stroke-linejoin="round" stroke-width="5"/>
      </g>
    </g>
  </g>
</svg>


